<?xml version="1.0" encoding="UTF-8" standalone="no"?>
<svg
   height="100"
   width="100"
   version="1.1"
   id="svg1"
   sodipodi:docname="scatter3d.svg"
   inkscape:version="1.3.2 (091e20e, 2023-11-25, custom)"
   xml:space="preserve"
   xmlns:inkscape="http://www.inkscape.org/namespaces/inkscape"
   xmlns:sodipodi="http://sodipodi.sourceforge.net/DTD/sodipodi-0.dtd"
   xmlns="http://www.w3.org/2000/svg"
   xmlns:svg="http://www.w3.org/2000/svg"><defs
     id="defs1"><inkscape:perspective
       sodipodi:type="inkscape:persp3d"
       inkscape:vp_x="100.98038 : 2.9000726 : 1"
       inkscape:vp_y="0 : -922.27652 : 0"
       inkscape:vp_z="0.98037322 : 2.9000726 : 1"
       inkscape:persp3d-origin="50.980377 : 18.271348 : 1"
       id="perspective37" /></defs><sodipodi:namedview
     id="namedview1"
     pagecolor="#ffffff"
     bordercolor="#000000"
     borderopacity="0.25"
     inkscape:showpageshadow="2"
     inkscape:pageopacity="0.0"
     inkscape:pagecheckerboard="0"
     inkscape:deskcolor="#d1d1d1"
     showgrid="true"
     inkscape:zoom="3.995"
     inkscape:cx="33.541927"
     inkscape:cy="73.341677"
     inkscape:window-width="1596"
     inkscape:window-height="818"
     inkscape:window-x="70"
     inkscape:window-y="86"
     inkscape:window-maximized="0"
     inkscape:current-layer="svg1"
     showguides="true"><inkscape:grid
       id="grid43"
       units="px"
       originx="0"
       originy="0"
       spacingx="1"
       spacingy="1"
       empcolor="#0099e5"
       empopacity="0.30196078"
       color="#0099e5"
       opacity="0.14901961"
       empspacing="5"
       dotted="false"
       gridanglex="30"
       gridanglez="30"
       visible="true"
       snapvisiblegridlinesonly="true" /></sodipodi:namedview><path
     style="fill:#99a1bf;fill-opacity:1;stroke:#000000;stroke-width:1.25;stroke-linecap:round;stroke-linejoin:round;stroke-miterlimit:30.8;stroke-dasharray:none;stroke-opacity:1"
     d="m 6.2415378,74.374997 v -43.75 l 43.7500002,-18.75 v 43.75 z"
     id="path4"
     sodipodi:nodetypes="ccccc" /><path
     style="mix-blend-mode:darken;fill:#99a1cb;fill-opacity:1;stroke:#000000;stroke-width:1.25;stroke-linecap:round;stroke-linejoin:round;stroke-miterlimit:30.8;stroke-dasharray:none;stroke-opacity:1"
     d="m 93.741538,74.374997 -43.75,-18.75 v -43.75 l 43.75,18.75 z"
     id="path5" /><path
     style="fill:#99a1cb;fill-opacity:1;stroke:#000000;stroke-width:1.25;stroke-linecap:round;stroke-linejoin:round;stroke-miterlimit:30.8;stroke-dasharray:none;stroke-opacity:1"
     d="m 6.2415378,74.374997 43.7500002,-18.75 43.75,18.75 -43.75,18.75 z"
     id="path2"
     sodipodi:nodetypes="ccccc" /><path
     style="fill:#dbd0d0;fill-opacity:1;stroke:#ffffff;stroke-width:1.41733;stroke-linecap:round;stroke-linejoin:round;stroke-miterlimit:30.8;stroke-opacity:1"
     d="m 6.6840328,61.874997 43.3075052,-18.75"
     id="path3-5"
     inkscape:label="w12"
     sodipodi:nodetypes="cc" /><path
     style="fill:#dbd0d0;fill-opacity:1;stroke:#ffffff;stroke-width:1.41733;stroke-linecap:round;stroke-linejoin:round;stroke-miterlimit:30.8;stroke-opacity:1"
     d="M 6.4627853,42.90375 49.991538,24.374997"
     id="path3-6"
     inkscape:label="w11"
     sodipodi:nodetypes="cc" /><path
     style="fill:#dbd0d0;fill-opacity:1;stroke:#ffffff;stroke-width:1.41733;stroke-linecap:round;stroke-linejoin:round;stroke-miterlimit:30.8;stroke-opacity:1"
     d="M 63.610517,87.074407 19.527685,68.214744"
     id="path3-8-0"
     sodipodi:nodetypes="cc"
     inkscape:label="w10" /><path
     style="fill:#dbd0d0;fill-opacity:1;stroke:#ffffff;stroke-width:1.41733;stroke-linecap:round;stroke-linejoin:round;stroke-miterlimit:30.8;stroke-opacity:1"
     d="M 80.245924,80.071879 37.490578,61.875957"
     id="path3-8-0-3"
     sodipodi:nodetypes="cc"
     inkscape:label="w9" /><path
     style="fill:#dbd0d0;fill-opacity:1;stroke:#ffffff;stroke-width:1.41733;stroke-linecap:round;stroke-linejoin:round;stroke-miterlimit:30.8;stroke-opacity:1"
     d="M 93.741538,61.874997 49.990578,43.125957"
     id="path3-8-0-3-1"
     sodipodi:nodetypes="cc"
     inkscape:label="w8" /><path
     style="fill:#dbd0d0;fill-opacity:1;stroke:#ffffff;stroke-width:1.41733;stroke-linecap:round;stroke-linejoin:round;stroke-miterlimit:30.8;stroke-opacity:1"
     d="M 93.742498,43.124037 49.991538,24.374997"
     id="path3-8-0-3-8"
     sodipodi:nodetypes="cc"
     inkscape:label="w7" /><path
     style="fill:#dbd0d0;fill-opacity:1;stroke:#ffffff;stroke-width:1.41733;stroke-linecap:round;stroke-linejoin:round;stroke-miterlimit:30.8;stroke-opacity:1"
     d="M 19.626528,79.563106 62.934033,61.144977"
     id="path3"
     inkscape:label="w6"
     sodipodi:nodetypes="cc" /><path
     style="fill:#dbd0d0;fill-opacity:1;stroke:#ffffff;stroke-width:1.41733;stroke-linecap:round;stroke-linejoin:round;stroke-miterlimit:30.8;stroke-opacity:1"
     d="m 37.049043,87.096245 43.75,-18.75"
     id="path3-8"
     inkscape:label="w5" /><path
     style="fill:#dbd0d0;fill-opacity:1;stroke:#ffffff;stroke-width:1.41733;stroke-linecap:round;stroke-linejoin:round;stroke-miterlimit:30.8;stroke-opacity:1"
     d="m 80.356548,25.326265 0.442495,43.01998"
     id="path3-8-5-2"
     sodipodi:nodetypes="cc"
     inkscape:label="w4" /><path
     style="fill:#dbd0d0;fill-opacity:1;stroke:#ffffff;stroke-width:1.41733;stroke-linecap:round;stroke-linejoin:round;stroke-miterlimit:30.8;stroke-opacity:1"
     d="m 62.413315,17.655661 0.520718,43.489316"
     id="path3-8-5"
     sodipodi:nodetypes="cc"
     inkscape:label="w3" /><path
     style="fill:#dbd0d0;fill-opacity:1;stroke:#ffffff;stroke-width:1.41733;stroke-linecap:round;stroke-linejoin:round;stroke-miterlimit:30.8;stroke-opacity:1"
     d="m 36.630015,17.915051 0.221248,43.683723"
     id="path3-8-5-2-4"
     sodipodi:nodetypes="cc"
     inkscape:label="w2" /><path
     style="fill:#dbd0d0;fill-opacity:1;stroke:#ffffff;stroke-width:1.41733;stroke-linecap:round;stroke-linejoin:round;stroke-miterlimit:30.8;stroke-opacity:1"
     d="m 19.08519,25.194764 0.442495,43.01998"
     id="path3-8-5-2-4-0"
     sodipodi:nodetypes="cc"
     inkscape:label="w1" /><path
     style="fill:#9bff00;fill-opacity:1;stroke:#000000;stroke-width:1.23047;stroke-linecap:round;stroke-linejoin:round;stroke-miterlimit:30.8;stroke-dasharray:none;stroke-opacity:1"
     id="path7-30"
     sodipodi:type="arc"
     sodipodi:cx="35.621563"
     sodipodi:cy="35.439426"
     sodipodi:rx="7.3828125"
     sodipodi:ry="7.3828125"
     sodipodi:start="0"
     sodipodi:end="6.2519219"
     sodipodi:open="true"
     sodipodi:arc-type="arc"
     d="m 43.004375,35.439426 a 7.3828125,7.3828125 0 0 1 -7.32511,7.382587 7.3828125,7.3828125 0 0 1 -7.439613,-7.267185 7.3828125,7.3828125 0 0 1 7.208818,-7.496185 7.3828125,7.3828125 0 0 1 7.552298,7.150009"
     inkscape:label="g5" /><path
     style="fill:#9bff00;fill-opacity:1;stroke:#000000;stroke-width:1.23047;stroke-linecap:round;stroke-linejoin:round;stroke-miterlimit:30.8;stroke-dasharray:none;stroke-opacity:1"
     id="path7-45"
     sodipodi:type="arc"
     sodipodi:cx="77.890289"
     sodipodi:cy="49.085724"
     sodipodi:rx="7.3828125"
     sodipodi:ry="7.3828125"
     sodipodi:start="0"
     sodipodi:end="6.2519219"
     sodipodi:open="true"
     sodipodi:arc-type="arc"
     d="m 85.273102,49.085724 a 7.3828125,7.3828125 0 0 1 -7.32511,7.382587 7.3828125,7.3828125 0 0 1 -7.439613,-7.267186 7.3828125,7.3828125 0 0 1 7.208817,-7.496184 7.3828125,7.3828125 0 0 1 7.552298,7.150009"
     inkscape:label="g6" /><path
     style="fill:#9bff00;fill-opacity:1;stroke:#000000;stroke-width:1.23047;stroke-linecap:round;stroke-linejoin:round;stroke-miterlimit:30.8;stroke-dasharray:none;stroke-opacity:1"
     id="path7-84"
     sodipodi:type="arc"
     sodipodi:cx="65.915085"
     sodipodi:cy="32.15646"
     sodipodi:rx="7.3828125"
     sodipodi:ry="7.3828125"
     sodipodi:start="0"
     sodipodi:end="6.2519219"
     sodipodi:open="true"
     sodipodi:arc-type="arc"
     d="m 73.297897,32.15646 a 7.3828125,7.3828125 0 0 1 -7.32511,7.382587 7.3828125,7.3828125 0 0 1 -7.439613,-7.267186 7.3828125,7.3828125 0 0 1 7.208818,-7.496184 7.3828125,7.3828125 0 0 1 7.552298,7.150009"
     inkscape:label="g3" /><path
     style="fill:#9bff00;fill-opacity:1;stroke:#000000;stroke-width:1.23047;stroke-linecap:round;stroke-linejoin:round;stroke-miterlimit:30.8;stroke-dasharray:none;stroke-opacity:1"
     id="path7-84-1"
     sodipodi:type="arc"
     sodipodi:cx="26.96298"
     sodipodi:cy="52.432297"
     sodipodi:rx="7.3828125"
     sodipodi:ry="7.3828125"
     sodipodi:start="0"
     sodipodi:end="6.2519219"
     sodipodi:open="true"
     sodipodi:arc-type="arc"
     d="m 34.345793,52.432297 a 7.3828125,7.3828125 0 0 1 -7.32511,7.382587 7.3828125,7.3828125 0 0 1 -7.439613,-7.267186 7.3828125,7.3828125 0 0 1 7.208817,-7.496184 7.3828125,7.3828125 0 0 1 7.552298,7.150008"
     inkscape:label="g2" /><path
     style="fill:#ff3700;fill-opacity:1;stroke:#000000;stroke-width:1.23047;stroke-linecap:round;stroke-linejoin:round;stroke-miterlimit:30.8;stroke-dasharray:none;stroke-opacity:1"
     id="path7-84-7-9-1"
     sodipodi:type="arc"
     sodipodi:cx="29.63678"
     sodipodi:cy="53.840313"
     sodipodi:rx="7.3828125"
     sodipodi:ry="7.3828125"
     sodipodi:start="0"
     sodipodi:end="6.2519219"
     sodipodi:open="true"
     sodipodi:arc-type="arc"
     d="m 37.019592,53.840313 a 7.3828125,7.3828125 0 0 1 -7.32511,7.382587 7.3828125,7.3828125 0 0 1 -7.439613,-7.267186 7.3828125,7.3828125 0 0 1 7.208818,-7.496184 7.3828125,7.3828125 0 0 1 7.552298,7.150009"
     inkscape:label="red2" /><path
     style="fill:#9bff00;fill-opacity:1;stroke:#000000;stroke-width:1.23047;stroke-linecap:round;stroke-linejoin:round;stroke-miterlimit:30.8;stroke-dasharray:none;stroke-opacity:1"
     id="path7-84-7"
     sodipodi:type="arc"
     sodipodi:cx="17.181807"
     sodipodi:cy="67.310768"
     sodipodi:rx="7.3828125"
     sodipodi:ry="7.3828125"
     sodipodi:start="0"
     sodipodi:end="6.2519219"
     sodipodi:open="true"
     sodipodi:arc-type="arc"
     d="m 24.564619,67.310768 a 7.3828125,7.3828125 0 0 1 -7.32511,7.382587 7.3828125,7.3828125 0 0 1 -7.439613,-7.267186 7.3828125,7.3828125 0 0 1 7.208818,-7.496184 7.3828125,7.3828125 0 0 1 7.552297,7.150009"
     inkscape:label="g1" /><path
     style="fill:#ff3700;fill-opacity:1;stroke:#000000;stroke-width:1.23047;stroke-linecap:round;stroke-linejoin:round;stroke-miterlimit:30.8;stroke-dasharray:none;stroke-opacity:1"
     id="path7-84-7-9"
     sodipodi:type="arc"
     sodipodi:cx="24.564615"
     sodipodi:cy="67.310768"
     sodipodi:rx="7.3828125"
     sodipodi:ry="7.3828125"
     sodipodi:start="0"
     sodipodi:end="6.2519219"
     sodipodi:open="true"
     sodipodi:arc-type="arc"
     d="m 31.947428,67.310768 a 7.3828125,7.3828125 0 0 1 -7.32511,7.382587 7.3828125,7.3828125 0 0 1 -7.439613,-7.267186 7.3828125,7.3828125 0 0 1 7.208817,-7.496184 7.3828125,7.3828125 0 0 1 7.552298,7.150009"
     inkscape:label="red1" /><path
     style="fill:#ff3700;fill-opacity:1;stroke:#000000;stroke-width:1.23047;stroke-linecap:round;stroke-linejoin:round;stroke-miterlimit:30.8;stroke-dasharray:none;stroke-opacity:1"
     id="path7-84-7-9-8"
     sodipodi:type="arc"
     sodipodi:cx="27.928688"
     sodipodi:cy="35.44183"
     sodipodi:rx="7.3828125"
     sodipodi:ry="7.3828125"
     sodipodi:start="0"
     sodipodi:end="6.2519219"
     sodipodi:open="true"
     sodipodi:arc-type="arc"
     d="m 35.311501,35.44183 a 7.3828125,7.3828125 0 0 1 -7.325111,7.382587 7.3828125,7.3828125 0 0 1 -7.439612,-7.267186 7.3828125,7.3828125 0 0 1 7.208817,-7.496184 7.3828125,7.3828125 0 0 1 7.552298,7.150008"
     inkscape:label="red3" /><path
     style="fill:#ff3700;fill-opacity:1;stroke:#000000;stroke-width:1.23047;stroke-linecap:round;stroke-linejoin:round;stroke-miterlimit:30.8;stroke-dasharray:none;stroke-opacity:1"
     id="path7-84-7-9-7"
     sodipodi:type="arc"
     sodipodi:cx="62.43301"
     sodipodi:cy="73.477974"
     sodipodi:rx="7.3828125"
     sodipodi:ry="7.3828125"
     sodipodi:start="0"
     sodipodi:end="6.2519219"
     sodipodi:open="true"
     sodipodi:arc-type="arc"
     d="M 69.815823,73.477974 A 7.3828125,7.3828125 0 0 1 62.490712,80.860561 7.3828125,7.3828125 0 0 1 55.0511,73.593375 7.3828125,7.3828125 0 0 1 62.259917,66.097191 7.3828125,7.3828125 0 0 1 69.812215,73.2472"
     inkscape:label="red4" /><path
     style="fill:#9bff00;fill-opacity:1;stroke:#000000;stroke-width:1.23047;stroke-linecap:round;stroke-linejoin:round;stroke-miterlimit:30.8;stroke-dasharray:none;stroke-opacity:1"
     id="path7"
     sodipodi:type="arc"
     sodipodi:cx="58.606236"
     sodipodi:cy="76.215782"
     sodipodi:rx="7.3828125"
     sodipodi:ry="7.3828125"
     sodipodi:start="0"
     sodipodi:end="6.2519219"
     sodipodi:open="true"
     sodipodi:arc-type="arc"
     d="m 65.989048,76.215782 a 7.3828125,7.3828125 0 0 1 -7.32511,7.382587 7.3828125,7.3828125 0 0 1 -7.439613,-7.267186 7.3828125,7.3828125 0 0 1 7.208817,-7.496184 7.3828125,7.3828125 0 0 1 7.552298,7.150009"
     inkscape:label="g4" /><path
     style="fill:#ff3700;fill-opacity:1;stroke:#000000;stroke-width:1.23047;stroke-linecap:round;stroke-linejoin:round;stroke-miterlimit:30.8;stroke-dasharray:none;stroke-opacity:1"
     id="path7-84-7-9-9"
     sodipodi:type="arc"
     sodipodi:cx="63.761368"
     sodipodi:cy="36.999142"
     sodipodi:rx="7.3828125"
     sodipodi:ry="7.3828125"
     sodipodi:start="0"
     sodipodi:end="6.2519219"
     sodipodi:open="true"
     sodipodi:arc-type="arc"
     d="m 71.14418,36.999142 a 7.3828125,7.3828125 0 0 1 -7.32511,7.382587 7.3828125,7.3828125 0 0 1 -7.439613,-7.267186 7.3828125,7.3828125 0 0 1 7.208818,-7.496184 7.3828125,7.3828125 0 0 1 7.552298,7.150008"
     inkscape:label="red5" /><path
     style="fill:#ff3700;fill-opacity:1;stroke:#000000;stroke-width:1.23047;stroke-linecap:round;stroke-linejoin:round;stroke-miterlimit:30.8;stroke-dasharray:none;stroke-opacity:1"
     id="path7-84-7-9-4"
     sodipodi:type="arc"
     sodipodi:cx="79.794197"
     sodipodi:cy="45.212036"
     sodipodi:rx="7.3828125"
     sodipodi:ry="7.3828125"
     sodipodi:start="0"
     sodipodi:end="6.2519219"
     sodipodi:open="true"
     sodipodi:arc-type="arc"
     d="m 87.17701,45.212036 a 7.3828125,7.3828125 0 0 1 -7.325111,7.382587 7.3828125,7.3828125 0 0 1 -7.439612,-7.267186 7.3828125,7.3828125 0 0 1 7.208817,-7.496184 7.3828125,7.3828125 0 0 1 7.552298,7.150009"
     inkscape:label="red6" /></svg>
