<?xml version="1.0" encoding="UTF-8" standalone="no"?>
<svg
   height="100"
   width="100"
   version="1.1"
   id="svg1"
   sodipodi:docname="scatter3d.svg"
   inkscape:version="1.3.2 (091e20e, 2023-11-25, custom)"
   xml:space="preserve"
   xmlns:inkscape="http://www.inkscape.org/namespaces/inkscape"
   xmlns:sodipodi="http://sodipodi.sourceforge.net/DTD/sodipodi-0.dtd"
   xmlns="http://www.w3.org/2000/svg"
   xmlns:svg="http://www.w3.org/2000/svg"><defs
     id="defs1"><inkscape:perspective
       sodipodi:type="inkscape:persp3d"
       inkscape:vp_x="100.98038 : 2.9000726 : 1"
       inkscape:vp_y="0 : -922.27652 : 0"
       inkscape:vp_z="0.98037322 : 2.9000726 : 1"
       inkscape:persp3d-origin="50.980377 : 18.271348 : 1"
       id="perspective37" /></defs><sodipodi:namedview
     id="namedview1"
     pagecolor="#ffffff"
     bordercolor="#000000"
     borderopacity="0.25"
     inkscape:showpageshadow="2"
     inkscape:pageopacity="0.0"
     inkscape:pagecheckerboard="0"
     inkscape:deskcolor="#d1d1d1"
     showgrid="true"
     inkscape:zoom="3.995"
     inkscape:cx="33.541927"
     inkscape:cy="73.341677"
     inkscape:window-width="1596"
     inkscape:window-height="818"
     inkscape:window-x="95"
     inkscape:window-y="132"
     inkscape:window-maximized="0"
     inkscape:current-layer="svg1"
     showguides="true"><inkscape:grid
       id="grid43"
       units="px"
       originx="0"
       originy="0"
       spacingx="1"
       spacingy="1"
       empcolor="#0099e5"
       empopacity="0.30196078"
       color="#0099e5"
       opacity="0.14901961"
       empspacing="5"
       dotted="false"
       gridanglex="30"
       gridanglez="30"
       visible="true"
       snapvisiblegridlinesonly="true" /></sodipodi:namedview><path
     style="fill:#c1d0ff;fill-opacity:1;stroke:#000000;stroke-width:1;stroke-linecap:round;stroke-linejoin:round;stroke-miterlimit:30.8;stroke-opacity:1;stroke-dasharray:none"
     d="M 15,70 V 35 L 50,20 v 35 z"
     id="path4"
     sodipodi:nodetypes="ccccc" /><path
     style="mix-blend-mode:darken;fill:#c1cbff;fill-opacity:1;stroke:#000000;stroke-width:1;stroke-linecap:round;stroke-linejoin:round;stroke-miterlimit:30.8;stroke-opacity:1;stroke-dasharray:none"
     d="M 85,70 50,55 V 20 l 35,15 z"
     id="path5" /><path
     style="fill:#c1cbff;fill-opacity:1;stroke:#000000;stroke-width:1;stroke-linecap:round;stroke-linejoin:round;stroke-miterlimit:30.8;stroke-opacity:1;stroke-dasharray:none"
     d="M 15,70 50,55 85,70 50,85 Z"
     id="path2"
     sodipodi:nodetypes="ccccc" /><path
     style="fill:#dbd0d0;fill-opacity:1;stroke:#ffffff;stroke-width:1.13386;stroke-linecap:round;stroke-linejoin:round;stroke-miterlimit:30.8;stroke-opacity:1"
     d="M 15.353996,60 50,45"
     id="path3-5"
     inkscape:label="w12"
     sodipodi:nodetypes="cc" /><path
     style="fill:#dbd0d0;fill-opacity:1;stroke:#ffffff;stroke-width:1.13386;stroke-linecap:round;stroke-linejoin:round;stroke-miterlimit:30.8;stroke-opacity:1"
     d="M 15.176998,44.823002 50,30"
     id="path3-6"
     inkscape:label="w11"
     sodipodi:nodetypes="cc" /><path
     style="fill:#dbd0d0;fill-opacity:1;stroke:#ffffff;stroke-width:1.13386;stroke-linecap:round;stroke-linejoin:round;stroke-miterlimit:30.8;stroke-opacity:1"
     d="M 60.895183,80.159528 25.628918,65.071797"
     id="path3-8-0"
     sodipodi:nodetypes="cc"
     inkscape:label="w10" /><path
     style="fill:#dbd0d0;fill-opacity:1;stroke:#ffffff;stroke-width:1.13386;stroke-linecap:round;stroke-linejoin:round;stroke-miterlimit:30.8;stroke-opacity:1"
     d="M 74.203509,74.557505 39.999232,60.000768"
     id="path3-8-0-3"
     sodipodi:nodetypes="cc"
     inkscape:label="w9" /><path
     style="fill:#dbd0d0;fill-opacity:1;stroke:#ffffff;stroke-width:1.13386;stroke-linecap:round;stroke-linejoin:round;stroke-miterlimit:30.8;stroke-opacity:1"
     d="M 85,60 49.999232,45.000768"
     id="path3-8-0-3-1"
     sodipodi:nodetypes="cc"
     inkscape:label="w8" /><path
     style="fill:#dbd0d0;fill-opacity:1;stroke:#ffffff;stroke-width:1.13386;stroke-linecap:round;stroke-linejoin:round;stroke-miterlimit:30.8;stroke-opacity:1"
     d="M 85.000768,44.999232 50,30"
     id="path3-8-0-3-8"
     sodipodi:nodetypes="cc"
     inkscape:label="w7" /><path
     style="fill:#dbd0d0;fill-opacity:1;stroke:#ffffff;stroke-width:1.13386;stroke-linecap:round;stroke-linejoin:round;stroke-miterlimit:30.8;stroke-opacity:1"
     d="M 25.707992,74.150487 60.353996,59.415984"
     id="path3"
     inkscape:label="w6"
     sodipodi:nodetypes="cc" /><path
     style="fill:#dbd0d0;fill-opacity:1;stroke:#ffffff;stroke-width:1.13386;stroke-linecap:round;stroke-linejoin:round;stroke-miterlimit:30.8;stroke-opacity:1"
     d="m 39.646004,80.176998 35,-15"
     id="path3-8"
     inkscape:label="w5" /><path
     style="fill:#dbd0d0;fill-opacity:1;stroke:#ffffff;stroke-width:1.13386;stroke-linecap:round;stroke-linejoin:round;stroke-miterlimit:30.8;stroke-opacity:1"
     d="m 74.292008,30.761014 0.353996,34.415984"
     id="path3-8-5-2"
     sodipodi:nodetypes="cc"
     inkscape:label="w4" /><path
     style="fill:#dbd0d0;fill-opacity:1;stroke:#ffffff;stroke-width:1.13386;stroke-linecap:round;stroke-linejoin:round;stroke-miterlimit:30.8;stroke-opacity:1"
     d="m 59.937422,24.624531 0.416574,34.791453"
     id="path3-8-5"
     sodipodi:nodetypes="cc"
     inkscape:label="w3" /><path
     style="fill:#dbd0d0;fill-opacity:1;stroke:#ffffff;stroke-width:1.13386;stroke-linecap:round;stroke-linejoin:round;stroke-miterlimit:30.8;stroke-opacity:1"
     d="M 39.310782,24.832043 39.48778,59.779021"
     id="path3-8-5-2-4"
     sodipodi:nodetypes="cc"
     inkscape:label="w2" /><path
     style="fill:#dbd0d0;fill-opacity:1;stroke:#ffffff;stroke-width:1.13386;stroke-linecap:round;stroke-linejoin:round;stroke-miterlimit:30.8;stroke-opacity:1"
     d="m 25.274922,30.655813 0.353996,34.415984"
     id="path3-8-5-2-4-0"
     sodipodi:nodetypes="cc"
     inkscape:label="w1" /><path
     style="fill:#9bff00;fill-opacity:1;stroke:#000000;stroke-width:0.25;stroke-linecap:round;stroke-linejoin:round;stroke-miterlimit:30.8;stroke-opacity:1;stroke-dasharray:none"
     id="path7"
     sodipodi:type="arc"
     sodipodi:cx="29.5"
     sodipodi:cy="55"
     sodipodi:rx="1.5"
     sodipodi:ry="1.5"
     sodipodi:start="0"
     sodipodi:end="6.2519219"
     sodipodi:open="true"
     sodipodi:arc-type="arc"
     d="m 31,55 a 1.5,1.5 0 0 1 -1.488276,1.499954 1.5,1.5 0 0 1 -1.511541,-1.476507 1.5,1.5 0 0 1 1.464649,-1.523035 1.5,1.5 0 0 1 1.534435,1.452701"
     inkscape:label="g4" /><path
     style="fill:#9bff00;fill-opacity:1;stroke:#000000;stroke-width:0.25;stroke-linecap:round;stroke-linejoin:round;stroke-miterlimit:30.8;stroke-opacity:1;stroke-dasharray:none"
     id="path7-8"
     sodipodi:type="arc"
     sodipodi:cx="38"
     sodipodi:cy="42.5"
     sodipodi:rx="1.5"
     sodipodi:ry="1.5"
     sodipodi:start="0"
     sodipodi:end="6.2519219"
     sodipodi:open="true"
     sodipodi:arc-type="arc"
     d="m 39.5,42.5 a 1.5,1.5 0 0 1 -1.488276,1.499954 1.5,1.5 0 0 1 -1.511541,-1.476507 1.5,1.5 0 0 1 1.464649,-1.523035 1.5,1.5 0 0 1 1.534435,1.452701"
     inkscape:label="g7" /><path
     style="fill:#9bff00;fill-opacity:1;stroke:#000000;stroke-width:0.25;stroke-linecap:round;stroke-linejoin:round;stroke-miterlimit:30.8;stroke-opacity:1;stroke-dasharray:none"
     id="path7-30"
     sodipodi:type="arc"
     sodipodi:cx="32.5"
     sodipodi:cy="51"
     sodipodi:rx="1.5"
     sodipodi:ry="1.5"
     sodipodi:start="0"
     sodipodi:end="6.2519219"
     sodipodi:open="true"
     sodipodi:arc-type="arc"
     d="m 34,51 a 1.5,1.5 0 0 1 -1.488276,1.499954 1.5,1.5 0 0 1 -1.511541,-1.476507 1.5,1.5 0 0 1 1.464649,-1.523035 1.5,1.5 0 0 1 1.534435,1.452701"
     inkscape:label="g5" /><path
     style="fill:#9bff00;fill-opacity:1;stroke:#000000;stroke-width:0.25;stroke-linecap:round;stroke-linejoin:round;stroke-miterlimit:30.8;stroke-opacity:1;stroke-dasharray:none"
     id="path7-7"
     sodipodi:type="arc"
     sodipodi:cx="41.5"
     sodipodi:cy="37.5"
     sodipodi:rx="1.5"
     sodipodi:ry="1.5"
     sodipodi:start="0"
     sodipodi:end="6.2519219"
     sodipodi:open="true"
     sodipodi:arc-type="arc"
     d="m 43,37.5 a 1.5,1.5 0 0 1 -1.488276,1.499954 1.5,1.5 0 0 1 -1.511541,-1.476507 1.5,1.5 0 0 1 1.464649,-1.523035 1.5,1.5 0 0 1 1.534435,1.452701"
     inkscape:label="g8" /><path
     style="fill:#9bff00;fill-opacity:1;stroke:#000000;stroke-width:0.25;stroke-linecap:round;stroke-linejoin:round;stroke-miterlimit:30.8;stroke-opacity:1;stroke-dasharray:none"
     id="path7-9"
     sodipodi:type="arc"
     sodipodi:cx="55.5"
     sodipodi:cy="43"
     sodipodi:rx="1.5"
     sodipodi:ry="1.5"
     sodipodi:start="0"
     sodipodi:end="6.2519219"
     sodipodi:open="true"
     sodipodi:arc-type="arc"
     d="m 57,43 a 1.5,1.5 0 0 1 -1.488276,1.499954 1.5,1.5 0 0 1 -1.511541,-1.476507 1.5,1.5 0 0 1 1.464649,-1.523035 1.5,1.5 0 0 1 1.534435,1.452701"
     inkscape:label="g11" /><path
     style="fill:#9bff00;fill-opacity:1;stroke:#000000;stroke-width:0.25;stroke-linecap:round;stroke-linejoin:round;stroke-miterlimit:30.8;stroke-opacity:1;stroke-dasharray:none"
     id="path7-83"
     sodipodi:type="arc"
     sodipodi:cx="57.5"
     sodipodi:cy="50"
     sodipodi:rx="1.5"
     sodipodi:ry="1.5"
     sodipodi:start="0"
     sodipodi:end="6.2519219"
     sodipodi:open="true"
     sodipodi:arc-type="arc"
     d="m 59,50 a 1.5,1.5 0 0 1 -1.488276,1.499954 1.5,1.5 0 0 1 -1.511541,-1.476507 1.5,1.5 0 0 1 1.464649,-1.523035 1.5,1.5 0 0 1 1.534435,1.452701"
     inkscape:label="g12" /><path
     style="fill:#9bff00;fill-opacity:1;stroke:#000000;stroke-width:0.25;stroke-linecap:round;stroke-linejoin:round;stroke-miterlimit:30.8;stroke-opacity:1;stroke-dasharray:none"
     id="path7-4"
     sodipodi:type="arc"
     sodipodi:cx="59.5"
     sodipodi:cy="56"
     sodipodi:rx="1.5"
     sodipodi:ry="1.5"
     sodipodi:start="0"
     sodipodi:end="6.2519219"
     sodipodi:open="true"
     sodipodi:arc-type="arc"
     d="m 61,56 a 1.5,1.5 0 0 1 -1.488276,1.499954 1.5,1.5 0 0 1 -1.511541,-1.476507 1.5,1.5 0 0 1 1.464649,-1.523035 1.5,1.5 0 0 1 1.534435,1.452701"
     inkscape:label="g13" /><path
     style="fill:#9bff00;fill-opacity:1;stroke:#000000;stroke-width:0.25;stroke-linecap:round;stroke-linejoin:round;stroke-miterlimit:30.8;stroke-opacity:1;stroke-dasharray:none"
     id="path7-49"
     sodipodi:type="arc"
     sodipodi:cx="61.5"
     sodipodi:cy="63"
     sodipodi:rx="1.5"
     sodipodi:ry="1.5"
     sodipodi:start="0"
     sodipodi:end="6.2519219"
     sodipodi:open="true"
     sodipodi:arc-type="arc"
     d="m 63,63 a 1.5,1.5 0 0 1 -1.488276,1.499954 1.5,1.5 0 0 1 -1.511541,-1.476507 1.5,1.5 0 0 1 1.464649,-1.523035 1.5,1.5 0 0 1 1.534435,1.452701"
     inkscape:label="g13" /><path
     style="fill:#9bff00;fill-opacity:1;stroke:#000000;stroke-width:0.25;stroke-linecap:round;stroke-linejoin:round;stroke-miterlimit:30.8;stroke-opacity:1;stroke-dasharray:none"
     id="path7-41"
     sodipodi:type="arc"
     sodipodi:cx="51.5"
     sodipodi:cy="69"
     sodipodi:rx="1.5"
     sodipodi:ry="1.5"
     sodipodi:start="0"
     sodipodi:end="6.2519219"
     sodipodi:open="true"
     sodipodi:arc-type="arc"
     d="m 53,69 a 1.5,1.5 0 0 1 -1.488276,1.499954 1.5,1.5 0 0 1 -1.511541,-1.476507 1.5,1.5 0 0 1 1.464649,-1.523035 1.5,1.5 0 0 1 1.534435,1.452701"
     inkscape:label="g15" /><path
     style="fill:#9bff00;fill-opacity:1;stroke:#000000;stroke-width:0.25;stroke-linecap:round;stroke-linejoin:round;stroke-miterlimit:30.8;stroke-opacity:1;stroke-dasharray:none"
     id="path7-6"
     sodipodi:type="arc"
     sodipodi:cx="57.5"
     sodipodi:cy="67"
     sodipodi:rx="1.5"
     sodipodi:ry="1.5"
     sodipodi:start="0"
     sodipodi:end="6.2519219"
     sodipodi:open="true"
     sodipodi:arc-type="arc"
     d="m 59,67 a 1.5,1.5 0 0 1 -1.488276,1.499954 1.5,1.5 0 0 1 -1.511541,-1.476507 1.5,1.5 0 0 1 1.464649,-1.523035 1.5,1.5 0 0 1 1.534435,1.452701"
     inkscape:label="g14" /><path
     style="fill:#9bff00;fill-opacity:1;stroke:#000000;stroke-width:0.25;stroke-linecap:round;stroke-linejoin:round;stroke-miterlimit:30.8;stroke-opacity:1;stroke-dasharray:none"
     id="path7-45"
     sodipodi:type="arc"
     sodipodi:cx="35.5"
     sodipodi:cy="46.5"
     sodipodi:rx="1.5"
     sodipodi:ry="1.5"
     sodipodi:start="0"
     sodipodi:end="6.2519219"
     sodipodi:open="true"
     sodipodi:arc-type="arc"
     d="m 37,46.5 a 1.5,1.5 0 0 1 -1.488276,1.499954 1.5,1.5 0 0 1 -1.511541,-1.476507 1.5,1.5 0 0 1 1.464649,-1.523035 1.5,1.5 0 0 1 1.534435,1.452701"
     inkscape:label="g6" /><path
     style="fill:#9bff00;fill-opacity:1;stroke:#000000;stroke-width:0.25;stroke-linecap:round;stroke-linejoin:round;stroke-miterlimit:30.8;stroke-opacity:1;stroke-dasharray:none"
     id="path7-84"
     sodipodi:type="arc"
     sodipodi:cx="26.5"
     sodipodi:cy="59.5"
     sodipodi:rx="1.5"
     sodipodi:ry="1.5"
     sodipodi:start="0"
     sodipodi:end="6.2519219"
     sodipodi:open="true"
     sodipodi:arc-type="arc"
     d="m 28,59.5 a 1.5,1.5 0 0 1 -1.488276,1.499954 1.5,1.5 0 0 1 -1.511541,-1.476507 1.5,1.5 0 0 1 1.464649,-1.523035 1.5,1.5 0 0 1 1.534435,1.452701"
     inkscape:label="g3" /><path
     style="fill:#9bff00;fill-opacity:1;stroke:#000000;stroke-width:0.25;stroke-linecap:round;stroke-linejoin:round;stroke-miterlimit:30.8;stroke-opacity:1;stroke-dasharray:none"
     id="path7-84-1"
     sodipodi:type="arc"
     sodipodi:cx="23.5"
     sodipodi:cy="64.5"
     sodipodi:rx="1.5"
     sodipodi:ry="1.5"
     sodipodi:start="0"
     sodipodi:end="6.2519219"
     sodipodi:open="true"
     sodipodi:arc-type="arc"
     d="m 25,64.5 a 1.5,1.5 0 0 1 -1.488276,1.499954 1.5,1.5 0 0 1 -1.511541,-1.476507 1.5,1.5 0 0 1 1.464649,-1.523035 1.5,1.5 0 0 1 1.534435,1.452701"
     inkscape:label="g2" /><path
     style="fill:#9bff00;fill-opacity:1;stroke:#000000;stroke-width:0.25;stroke-linecap:round;stroke-linejoin:round;stroke-miterlimit:30.8;stroke-opacity:1;stroke-dasharray:none"
     id="path7-84-7"
     sodipodi:type="arc"
     sodipodi:cx="21.5"
     sodipodi:cy="69.5"
     sodipodi:rx="1.5"
     sodipodi:ry="1.5"
     sodipodi:start="0"
     sodipodi:end="6.2519219"
     sodipodi:open="true"
     sodipodi:arc-type="arc"
     d="m 23,69.5 a 1.5,1.5 0 0 1 -1.488276,1.499954 1.5,1.5 0 0 1 -1.511541,-1.476507 1.5,1.5 0 0 1 1.464649,-1.523035 1.5,1.5 0 0 1 1.534435,1.452701"
     inkscape:label="g1" /><path
     style="fill:#ff3700;fill-opacity:1;stroke:#000000;stroke-width:0.25;stroke-linecap:round;stroke-linejoin:round;stroke-miterlimit:30.8;stroke-opacity:1;stroke-dasharray:none"
     id="path7-84-7-9"
     sodipodi:type="arc"
     sodipodi:cx="23"
     sodipodi:cy="69.5"
     sodipodi:rx="1.5"
     sodipodi:ry="1.5"
     sodipodi:start="0"
     sodipodi:end="6.2519219"
     sodipodi:open="true"
     sodipodi:arc-type="arc"
     d="m 24.5,69.5 a 1.5,1.5 0 0 1 -1.488276,1.499954 1.5,1.5 0 0 1 -1.511541,-1.476507 1.5,1.5 0 0 1 1.464649,-1.523035 1.5,1.5 0 0 1 1.534435,1.452701"
     inkscape:label="red1" /><path
     style="fill:#ff3700;fill-opacity:1;stroke:#000000;stroke-width:0.25;stroke-linecap:round;stroke-linejoin:round;stroke-miterlimit:30.8;stroke-opacity:1;stroke-dasharray:none"
     id="path7-84-7-9-1"
     sodipodi:type="arc"
     sodipodi:cx="25"
     sodipodi:cy="64.5"
     sodipodi:rx="1.5"
     sodipodi:ry="1.5"
     sodipodi:start="0"
     sodipodi:end="6.2519219"
     sodipodi:open="true"
     sodipodi:arc-type="arc"
     d="m 26.5,64.5 a 1.5,1.5 0 0 1 -1.488276,1.499954 1.5,1.5 0 0 1 -1.511541,-1.476507 1.5,1.5 0 0 1 1.464649,-1.523035 1.5,1.5 0 0 1 1.534435,1.452701"
     inkscape:label="red2" /><path
     style="fill:#ff3700;fill-opacity:1;stroke:#000000;stroke-width:0.25;stroke-linecap:round;stroke-linejoin:round;stroke-miterlimit:30.8;stroke-opacity:1;stroke-dasharray:none"
     id="path7-84-7-9-8"
     sodipodi:type="arc"
     sodipodi:cx="28"
     sodipodi:cy="59.5"
     sodipodi:rx="1.5"
     sodipodi:ry="1.5"
     sodipodi:start="0"
     sodipodi:end="6.2519219"
     sodipodi:open="true"
     sodipodi:arc-type="arc"
     d="m 29.5,59.5 a 1.5,1.5 0 0 1 -1.488276,1.499954 1.5,1.5 0 0 1 -1.511541,-1.476507 1.5,1.5 0 0 1 1.464649,-1.523035 1.5,1.5 0 0 1 1.534435,1.452701"
     inkscape:label="red3" /><path
     style="fill:#ff3700;fill-opacity:1;stroke:#000000;stroke-width:0.25;stroke-linecap:round;stroke-linejoin:round;stroke-miterlimit:30.8;stroke-opacity:1;stroke-dasharray:none"
     id="path7-84-7-9-7"
     sodipodi:type="arc"
     sodipodi:cx="30.5"
     sodipodi:cy="55"
     sodipodi:rx="1.5"
     sodipodi:ry="1.5"
     sodipodi:start="0"
     sodipodi:end="6.2519219"
     sodipodi:open="true"
     sodipodi:arc-type="arc"
     d="m 32,55 a 1.5,1.5 0 0 1 -1.488276,1.499954 1.5,1.5 0 0 1 -1.511541,-1.476507 1.5,1.5 0 0 1 1.464649,-1.523035 1.5,1.5 0 0 1 1.534435,1.452701"
     inkscape:label="red4" /><path
     style="fill:#ff3700;fill-opacity:1;stroke:#000000;stroke-width:0.25;stroke-linecap:round;stroke-linejoin:round;stroke-miterlimit:30.8;stroke-opacity:1;stroke-dasharray:none"
     id="path7-84-7-9-9"
     sodipodi:type="arc"
     sodipodi:cx="32"
     sodipodi:cy="50.5"
     sodipodi:rx="1.5"
     sodipodi:ry="1.5"
     sodipodi:start="0"
     sodipodi:end="6.2519219"
     sodipodi:open="true"
     sodipodi:arc-type="arc"
     d="m 33.5,50.5 a 1.5,1.5 0 0 1 -1.488276,1.499954 1.5,1.5 0 0 1 -1.511541,-1.476507 1.5,1.5 0 0 1 1.464649,-1.523035 1.5,1.5 0 0 1 1.534435,1.452701"
     inkscape:label="red5" /><path
     style="fill:#ff3700;fill-opacity:1;stroke:#000000;stroke-width:0.25;stroke-linecap:round;stroke-linejoin:round;stroke-miterlimit:30.8;stroke-opacity:1;stroke-dasharray:none"
     id="path7-84-7-9-4"
     sodipodi:type="arc"
     sodipodi:cx="35"
     sodipodi:cy="45.5"
     sodipodi:rx="1.5"
     sodipodi:ry="1.5"
     sodipodi:start="0"
     sodipodi:end="6.2519219"
     sodipodi:open="true"
     sodipodi:arc-type="arc"
     d="m 36.5,45.5 a 1.5,1.5 0 0 1 -1.488276,1.499954 1.5,1.5 0 0 1 -1.511541,-1.476507 1.5,1.5 0 0 1 1.464649,-1.523035 1.5,1.5 0 0 1 1.534435,1.452701"
     inkscape:label="red6" /><path
     style="fill:#ff3700;fill-opacity:1;stroke:#000000;stroke-width:0.25;stroke-linecap:round;stroke-linejoin:round;stroke-miterlimit:30.8;stroke-opacity:1;stroke-dasharray:none"
     id="path7-84-7-9-0"
     sodipodi:type="arc"
     sodipodi:cx="38"
     sodipodi:cy="41.5"
     sodipodi:rx="1.5"
     sodipodi:ry="1.5"
     sodipodi:start="0"
     sodipodi:end="6.2519219"
     sodipodi:open="true"
     sodipodi:arc-type="arc"
     d="m 39.5,41.5 a 1.5,1.5 0 0 1 -1.488276,1.499954 1.5,1.5 0 0 1 -1.511541,-1.476507 1.5,1.5 0 0 1 1.464649,-1.523035 1.5,1.5 0 0 1 1.534435,1.452701"
     inkscape:label="red7" /><path
     style="fill:#ff3700;fill-opacity:1;stroke:#000000;stroke-width:0.25;stroke-linecap:round;stroke-linejoin:round;stroke-miterlimit:30.8;stroke-opacity:1;stroke-dasharray:none"
     id="path7-84-7-9-62"
     sodipodi:type="arc"
     sodipodi:cx="41.5"
     sodipodi:cy="36"
     sodipodi:rx="1.5"
     sodipodi:ry="1.5"
     sodipodi:start="0"
     sodipodi:end="6.2519219"
     sodipodi:open="true"
     sodipodi:arc-type="arc"
     d="m 43,36 a 1.5,1.5 0 0 1 -1.488276,1.499954 1.5,1.5 0 0 1 -1.511541,-1.476507 1.5,1.5 0 0 1 1.464649,-1.523035 1.5,1.5 0 0 1 1.534435,1.452701"
     inkscape:label="red8" /><path
     style="fill:#ff3700;fill-opacity:1;stroke:#000000;stroke-width:0.25;stroke-linecap:round;stroke-linejoin:round;stroke-miterlimit:30.8;stroke-opacity:1;stroke-dasharray:none"
     id="path7-84-7-9-08"
     sodipodi:type="arc"
     sodipodi:cx="52.5"
     sodipodi:cy="39"
     sodipodi:rx="1.5"
     sodipodi:ry="1.5"
     sodipodi:start="0"
     sodipodi:end="6.2519219"
     sodipodi:open="true"
     sodipodi:arc-type="arc"
     d="m 54,39 a 1.5,1.5 0 0 1 -1.488276,1.499954 1.5,1.5 0 0 1 -1.511541,-1.476507 1.5,1.5 0 0 1 1.464649,-1.523035 1.5,1.5 0 0 1 1.534435,1.452701"
     inkscape:label="red10" /><path
     style="fill:#ff3700;fill-opacity:1;stroke:#000000;stroke-width:0.25;stroke-linecap:round;stroke-linejoin:round;stroke-miterlimit:30.8;stroke-opacity:1;stroke-dasharray:none"
     id="path7-84-7-9-3"
     sodipodi:type="arc"
     sodipodi:cx="56"
     sodipodi:cy="44.5"
     sodipodi:rx="1.5"
     sodipodi:ry="1.5"
     sodipodi:start="0"
     sodipodi:end="6.2519219"
     sodipodi:open="true"
     sodipodi:arc-type="arc"
     d="m 57.5,44.5 a 1.5,1.5 0 0 1 -1.488276,1.499954 1.5,1.5 0 0 1 -1.511541,-1.476507 1.5,1.5 0 0 1 1.464649,-1.523035 1.5,1.5 0 0 1 1.534435,1.452701"
     inkscape:label="red11" /><path
     style="fill:#ff3700;fill-opacity:1;stroke:#000000;stroke-width:0.25;stroke-linecap:round;stroke-linejoin:round;stroke-miterlimit:30.8;stroke-opacity:1;stroke-dasharray:none"
     id="path7-84-7-9-05"
     sodipodi:type="arc"
     sodipodi:cx="59"
     sodipodi:cy="50.5"
     sodipodi:rx="1.5"
     sodipodi:ry="1.5"
     sodipodi:start="0"
     sodipodi:end="6.2519219"
     sodipodi:open="true"
     sodipodi:arc-type="arc"
     d="m 60.5,50.5 a 1.5,1.5 0 0 1 -1.488276,1.499954 1.5,1.5 0 0 1 -1.511541,-1.476507 1.5,1.5 0 0 1 1.464649,-1.523035 1.5,1.5 0 0 1 1.534435,1.452701"
     inkscape:label="red12" /><path
     style="fill:#ff3700;fill-opacity:1;stroke:#000000;stroke-width:0.25;stroke-linecap:round;stroke-linejoin:round;stroke-miterlimit:30.8;stroke-opacity:1;stroke-dasharray:none"
     id="path7-84-7-9-2"
     sodipodi:type="arc"
     sodipodi:cx="60.5"
     sodipodi:cy="57"
     sodipodi:rx="1.5"
     sodipodi:ry="1.5"
     sodipodi:start="0"
     sodipodi:end="6.2519219"
     sodipodi:open="true"
     sodipodi:arc-type="arc"
     d="m 62,57 a 1.5,1.5 0 0 1 -1.488276,1.499954 1.5,1.5 0 0 1 -1.511541,-1.476507 1.5,1.5 0 0 1 1.464649,-1.523035 1.5,1.5 0 0 1 1.534435,1.452701"
     inkscape:label="red13" /><path
     style="fill:#ff3700;fill-opacity:1;stroke:#000000;stroke-width:0.25;stroke-linecap:round;stroke-linejoin:round;stroke-miterlimit:30.8;stroke-opacity:1;stroke-dasharray:none"
     id="path7-84-7-9-15"
     sodipodi:type="arc"
     sodipodi:cx="62"
     sodipodi:cy="63.5"
     sodipodi:rx="1.5"
     sodipodi:ry="1.5"
     sodipodi:start="0"
     sodipodi:end="6.2519219"
     sodipodi:open="true"
     sodipodi:arc-type="arc"
     d="m 63.5,63.5 a 1.5,1.5 0 0 1 -1.488276,1.499954 1.5,1.5 0 0 1 -1.511541,-1.476507 1.5,1.5 0 0 1 1.464649,-1.523035 1.5,1.5 0 0 1 1.534435,1.452701"
     inkscape:label="re14" /><path
     style="fill:#ff3700;fill-opacity:1;stroke:#000000;stroke-width:0.25;stroke-linecap:round;stroke-linejoin:round;stroke-miterlimit:30.8;stroke-opacity:1;stroke-dasharray:none"
     id="path7-84-7-9-6"
     sodipodi:type="arc"
     sodipodi:cx="58"
     sodipodi:cy="67.5"
     sodipodi:rx="1.5"
     sodipodi:ry="1.5"
     sodipodi:start="0"
     sodipodi:end="6.2519219"
     sodipodi:open="true"
     sodipodi:arc-type="arc"
     d="m 59.5,67.5 a 1.5,1.5 0 0 1 -1.488276,1.499954 1.5,1.5 0 0 1 -1.511541,-1.476507 1.5,1.5 0 0 1 1.464649,-1.523035 1.5,1.5 0 0 1 1.534435,1.452701"
     inkscape:label="red15" /><path
     style="fill:#ff3700;fill-opacity:1;stroke:#000000;stroke-width:0.25;stroke-linecap:round;stroke-linejoin:round;stroke-miterlimit:30.8;stroke-opacity:1;stroke-dasharray:none"
     id="path7-84-7-9-45"
     sodipodi:type="arc"
     sodipodi:cx="52"
     sodipodi:cy="69.5"
     sodipodi:rx="1.5"
     sodipodi:ry="1.5"
     sodipodi:start="0"
     sodipodi:end="6.2519219"
     sodipodi:open="true"
     sodipodi:arc-type="arc"
     d="m 53.5,69.5 a 1.5,1.5 0 0 1 -1.488276,1.499954 1.5,1.5 0 0 1 -1.511541,-1.476507 1.5,1.5 0 0 1 1.464649,-1.523035 1.5,1.5 0 0 1 1.534435,1.452701"
     inkscape:label="re16" /><path
     style="fill:#ff3700;fill-opacity:1;stroke:#000000;stroke-width:0.25;stroke-linecap:round;stroke-linejoin:round;stroke-miterlimit:30.8;stroke-opacity:1;stroke-dasharray:none"
     id="path7-84-7-9-31"
     sodipodi:type="arc"
     sodipodi:cx="45"
     sodipodi:cy="71.5"
     sodipodi:rx="1.5"
     sodipodi:ry="1.5"
     sodipodi:start="0"
     sodipodi:end="6.2519219"
     sodipodi:open="true"
     sodipodi:arc-type="arc"
     d="m 46.5,71.5 a 1.5,1.5 0 0 1 -1.488276,1.499954 1.5,1.5 0 0 1 -1.511541,-1.476507 1.5,1.5 0 0 1 1.464649,-1.523035 1.5,1.5 0 0 1 1.534435,1.452701"
     inkscape:label="red16" /><path
     style="fill:#ff3700;fill-opacity:1;stroke:#000000;stroke-width:0.25;stroke-linecap:round;stroke-linejoin:round;stroke-miterlimit:30.8;stroke-opacity:1;stroke-dasharray:none"
     id="path7-84-7-9-31-2"
     sodipodi:type="arc"
     sodipodi:cx="38"
     sodipodi:cy="71.5"
     sodipodi:rx="1.5"
     sodipodi:ry="1.5"
     sodipodi:start="0"
     sodipodi:end="6.2519219"
     sodipodi:open="true"
     sodipodi:arc-type="arc"
     d="m 39.5,71.5 a 1.5,1.5 0 0 1 -1.488276,1.499954 1.5,1.5 0 0 1 -1.511541,-1.476507 1.5,1.5 0 0 1 1.464649,-1.523035 1.5,1.5 0 0 1 1.534435,1.452701"
     inkscape:label="red17" /><path
     style="fill:#9bff00;fill-opacity:1;stroke:#000000;stroke-width:0.25;stroke-linecap:round;stroke-linejoin:round;stroke-miterlimit:30.8;stroke-opacity:1;stroke-dasharray:none"
     id="path7-5"
     sodipodi:type="arc"
     sodipodi:cx="51.5"
     sodipodi:cy="38"
     sodipodi:rx="1.5"
     sodipodi:ry="1.5"
     sodipodi:start="0"
     sodipodi:end="6.2519219"
     sodipodi:open="true"
     sodipodi:arc-type="arc"
     d="m 53,38 a 1.5,1.5 0 0 1 -1.488276,1.499954 1.5,1.5 0 0 1 -1.511541,-1.476507 1.5,1.5 0 0 1 1.464649,-1.523035 1.5,1.5 0 0 1 1.534435,1.452701"
     inkscape:label="g10" /><path
     style="fill:#9bff00;fill-opacity:1;stroke:#000000;stroke-width:0.25;stroke-linecap:round;stroke-linejoin:round;stroke-miterlimit:30.8;stroke-opacity:1;stroke-dasharray:none"
     id="path7-84-6"
     sodipodi:type="arc"
     sodipodi:cx="38.5"
     sodipodi:cy="72"
     sodipodi:rx="1.5"
     sodipodi:ry="1.5"
     sodipodi:start="0"
     sodipodi:end="6.2519219"
     sodipodi:open="true"
     sodipodi:arc-type="arc"
     d="m 40,72 a 1.5,1.5 0 0 1 -1.488276,1.499954 1.5,1.5 0 0 1 -1.511541,-1.476507 1.5,1.5 0 0 1 1.464649,-1.523035 1.5,1.5 0 0 1 1.534435,1.452701"
     inkscape:label="g17" /><path
     style="fill:#ff3700;fill-opacity:1;stroke:#000000;stroke-width:0.25;stroke-linecap:round;stroke-linejoin:round;stroke-miterlimit:30.8;stroke-opacity:1;stroke-dasharray:none"
     id="path7-84-7-9-90"
     sodipodi:type="arc"
     sodipodi:cx="47.5"
     sodipodi:cy="35"
     sodipodi:rx="1.5"
     sodipodi:ry="1.5"
     sodipodi:start="0"
     sodipodi:end="6.2519219"
     sodipodi:open="true"
     sodipodi:arc-type="arc"
     d="m 49,35 a 1.5,1.5 0 0 1 -1.488276,1.499954 1.5,1.5 0 0 1 -1.511541,-1.476507 1.5,1.5 0 0 1 1.464649,-1.523035 1.5,1.5 0 0 1 1.534435,1.452701"
     inkscape:label="red9" /><path
     style="fill:#9bff00;fill-opacity:1;stroke:#000000;stroke-width:0.25;stroke-linecap:round;stroke-linejoin:round;stroke-miterlimit:30.8;stroke-opacity:1;stroke-dasharray:none"
     id="path7-79"
     sodipodi:type="arc"
     sodipodi:cx="46.5"
     sodipodi:cy="35.5"
     sodipodi:rx="1.5"
     sodipodi:ry="1.5"
     sodipodi:start="0"
     sodipodi:end="6.2519219"
     sodipodi:open="true"
     sodipodi:arc-type="arc"
     d="m 48,35.5 a 1.5,1.5 0 0 1 -1.488276,1.499954 1.5,1.5 0 0 1 -1.511541,-1.476507 1.5,1.5 0 0 1 1.464649,-1.523035 1.5,1.5 0 0 1 1.534435,1.452701"
     inkscape:label="g9" /><path
     style="fill:#9bff00;fill-opacity:1;stroke:#000000;stroke-width:0.25;stroke-linecap:round;stroke-linejoin:round;stroke-miterlimit:30.8;stroke-opacity:1;stroke-dasharray:none"
     id="path7-84-76"
     sodipodi:type="arc"
     sodipodi:cx="44.5"
     sodipodi:cy="71"
     sodipodi:rx="1.5"
     sodipodi:ry="1.5"
     sodipodi:start="0"
     sodipodi:end="6.2519219"
     sodipodi:open="true"
     sodipodi:arc-type="arc"
     d="m 46,71 a 1.5,1.5 0 0 1 -1.488276,1.499954 1.5,1.5 0 0 1 -1.511541,-1.476507 1.5,1.5 0 0 1 1.464649,-1.523035 1.5,1.5 0 0 1 1.534435,1.452701"
     inkscape:label="g16" /></svg>
